<?xml version="1.0" encoding="UTF-8" standalone="no"?>
<!-- Generator: Adobe Illustrator 18.0.0, SVG Export Plug-In . SVG Version: 6.00 Build 0)  -->

<svg
   xmlns:dc="http://purl.org/dc/elements/1.1/"
   xmlns:cc="http://creativecommons.org/ns#"
   xmlns:rdf="http://www.w3.org/1999/02/22-rdf-syntax-ns#"
   xmlns:svg="http://www.w3.org/2000/svg"
   xmlns="http://www.w3.org/2000/svg"
   xmlns:sodipodi="http://sodipodi.sourceforge.net/DTD/sodipodi-0.dtd"
   xmlns:inkscape="http://www.inkscape.org/namespaces/inkscape"
   version="1.1"
   id="Capa_1"
   x="0px"
   y="0px"
   viewBox="0 0 238.07378 174.5176"
   xml:space="preserve"
   sodipodi:docname="img-example.svg"
   width="238.07376"
   height="174.51759"
   inkscape:version="0.92.4 (unknown)"><metadata
   id="metadata43"><rdf:RDF><cc:Work
       rdf:about=""><dc:format>image/svg+xml</dc:format><dc:type
         rdf:resource="http://purl.org/dc/dcmitype/StillImage" /><dc:title></dc:title></cc:Work></rdf:RDF></metadata><defs
   id="defs41" /><sodipodi:namedview
   pagecolor="#ffffff"
   bordercolor="#666666"
   borderopacity="1"
   objecttolerance="10"
   gridtolerance="10"
   guidetolerance="10"
   inkscape:pageopacity="0"
   inkscape:pageshadow="2"
   inkscape:window-width="1366"
   inkscape:window-height="710"
   id="namedview39"
   showgrid="false"
   inkscape:zoom="0.74782943"
   inkscape:cx="65.522962"
   inkscape:cy="195.33075"
   inkscape:window-x="0"
   inkscape:window-y="0"
   inkscape:window-maximized="1"
   inkscape:current-layer="Capa_1"
   fit-margin-top="0"
   fit-margin-left="0"
   fit-margin-right="0"
   fit-margin-bottom="0" />
<g
   id="g6"
   style="opacity:1;fill:#484848"
   transform="matrix(0.75440064,0,0,0.70110478,0,-23.368523)">
	<path
   d="M 310.58,33.331 H 5 c -2.761,0 -5,2.238 -5,5 v 238.918 c 0,2.762 2.239,5 5,5 h 305.58 c 2.763,0 5,-2.238 5,-5 V 38.331 c 0,-2.762 -2.237,-5 -5,-5 z m -25,209.055 -68.766,-71.214 c -0.76,-0.785 -2.003,-0.836 -2.823,-0.114 l -47.695,41.979 -60.962,-75.061 c -0.396,-0.49 -0.975,-0.77 -1.63,-0.756 -0.631,0.013 -1.22,0.316 -1.597,0.822 L 30,234.797 V 63.331 h 255.58 z"
   id="path2"
   style="fill:#484848"
   inkscape:connector-curvature="0" />
	<path
   d="m 210.059,135.555 c 13.538,0 24.529,-10.982 24.529,-24.531 0,-13.545 -10.991,-24.533 -24.529,-24.533 -13.549,0 -24.528,10.988 -24.528,24.533 0,13.548 10.98,24.531 24.528,24.531 z"
   id="path4"
   style="fill:#484848"
   inkscape:connector-curvature="0" />
</g>
<g
   id="g8"
   transform="translate(112.32508,-181.27758)">
</g>
<g
   id="g10"
   transform="translate(112.32508,-181.27758)">
</g>
<g
   id="g12"
   transform="translate(112.32508,-181.27758)">
</g>
<g
   id="g14"
   transform="translate(112.32508,-181.27758)">
</g>
<g
   id="g16"
   transform="translate(112.32508,-181.27758)">
</g>
<g
   id="g18"
   transform="translate(112.32508,-181.27758)">
</g>
<g
   id="g20"
   transform="translate(112.32508,-181.27758)">
</g>
<g
   id="g22"
   transform="translate(112.32508,-181.27758)">
</g>
<g
   id="g24"
   transform="translate(112.32508,-181.27758)">
</g>
<g
   id="g26"
   transform="translate(112.32508,-181.27758)">
</g>
<g
   id="g28"
   transform="translate(112.32508,-181.27758)">
</g>
<g
   id="g30"
   transform="translate(112.32508,-181.27758)">
</g>
<g
   id="g32"
   transform="translate(112.32508,-181.27758)">
</g>
<g
   id="g34"
   transform="translate(112.32508,-181.27758)">
</g>
<g
   id="g36"
   transform="translate(112.32508,-181.27758)">
</g>
</svg>