<svg xmlns="http://www.w3.org/2000/svg" width="201.23" height="85.844" viewBox="0 0 201.23 85.844"><defs><style>.a{fill:#5b2d00;}</style></defs><g transform="translate(-12.172 -11)"><g transform="translate(12.172 11)"><path class="a" d="M108.549,99.91a17.776,17.776,0,0,0,2.75,12.954c1.955,2.994,4.277,4.155,6.9,3.666,3.911-.733,6.6-3.727,8.31-9.043,1.711-5.194,1.528-9.715-.794-13.5a2.384,2.384,0,0,0-2.444-1.283c-.917.122-1.344.55-1.283,1.222.122.489.306.978.428,1.405,1.283,4.522,1.405,8.371.489,11.671-.733,2.75-1.833,4.277-3.361,4.522-.855.122-1.589-.306-2.261-1.405a14.925,14.925,0,0,1-1.711-4.7,18.375,18.375,0,0,1-.367-5.316c.428-3.727,1.894-6.294,4.216-7.577a5.5,5.5,0,0,1,1.711-.489c.489-.061.244-.428-.794-1.039a4.826,4.826,0,0,0-3.361-.367c-4.766.917-7.577,4.033-8.432,9.288" transform="translate(-49.567 -41.923)"/><path class="a" d="M247.682,103.748a3.087,3.087,0,0,0-.061-1.955,4.225,4.225,0,0,0-1.833-2.261,5.659,5.659,0,0,0-2.75-1.1,2.217,2.217,0,0,0-2.077,1.161q-.825,1.192-1.65,2.566c-3.788,5.866-6.355,8.8-7.943,8.677a1.229,1.229,0,0,1-1.039-.917,2.96,2.96,0,0,1-.183-1.1,14.215,14.215,0,0,1,2.505-9.043c2.139-3.3,4.7-4.766,7.7-4.461a3.6,3.6,0,0,1,2.627,1.466,3.664,3.664,0,0,0,1.589,1.466c.733.244,1.222.306,1.589.061s.367-.855.061-1.833c-.733-2.2-3.605-3.605-8.616-4.033a14.324,14.324,0,0,0-4.338.183c-4.4.855-7.577,3.849-9.41,8.8a16.973,16.973,0,0,0-.367,12.221c.183.428.306.794.489,1.161a3.765,3.765,0,0,0,3.422,1.833c3.666.244,7.271-2.933,11.243-9.349-.489,1.344-.306,3.055.367,5.194,1.1,3.3,2.75,5.377,5.072,6.233,1.283.489,1.833.428,1.65-.244a20.9,20.9,0,0,1-.122-7.638c.855-3.116,1.528-5.438,2.077-7.088" transform="translate(-93.99 -42.645)"/><path class="a" d="M265.377,83.308a3.907,3.907,0,0,0,2.872,2.933c-.061,0,.55.061,1.772.122-1.955,6.477-2.933,10.326-3.116,11.548a17.738,17.738,0,0,0,.489,8.738,18.215,18.215,0,0,0,1.222,2.505,10.049,10.049,0,0,0,4.338,4.4c.55.244.917.244,1.1-.061a5.658,5.658,0,0,0-.306-1.283c-.55-2.139-.061-5.988,1.466-11.426,1.589-5.438,3.055-9.838,4.338-13.2,3.483.183,5.8.367,6.844.489a.922.922,0,0,0,.855-.55,1.188,1.188,0,0,0,.122-1.1,1.134,1.134,0,0,0-1.039-.794c-.55-.061-1.344-.183-2.322-.306q-1.558-.183-3.3-.367a44.888,44.888,0,0,1,4.522-8.432c.428-.55.244-1.1-.489-1.65a8.032,8.032,0,0,0-4.522-1.589c-2.261-.183-4.155.917-5.744,3.3-1.222,2.322-2.444,4.7-3.544,7.027a30.56,30.56,0,0,1-5.01-.855c-.489-.244-.672,0-.55.55" transform="translate(-110.646 -35.22)"/><path class="a" d="M300.052,108.679a13.668,13.668,0,0,0,9.96-1.894c2.811-1.894,3.911-4.094,3.3-6.721a5.52,5.52,0,0,0-2.078-3.177,9.08,9.08,0,0,0-3.605-1.528c-6.477-.978-11.732,1.283-15.642,6.66-3.238,4.583-3.911,9.165-2.383,13.748,1.161,3.361,3.605,5.255,7.393,5.744a16.022,16.022,0,0,0,8.677-1.405c2.383-1.405,4.094-2.444,5.072-3.177.672-.55.733-1.161,0-1.833a1.136,1.136,0,0,0-1.711.061c-3.116,2.139-5.744,2.994-8.066,2.689a3.5,3.5,0,0,1-3.055-2.75c-.489-1.65-.306-3.849.489-6.66.55.061,1.1.183,1.65.244m3.422-8.127c2.016-1.589,3.788-2.261,5.255-2.016q1.1.183,1.283.917.275.917-.917,2.383a8.8,8.8,0,0,1-1.955,2.016c-1.955.978-3.116,1.65-3.483,1.833a7.862,7.862,0,0,1-4.4.367,13.219,13.219,0,0,1,4.216-5.5" transform="translate(-119.78 -43.727)"/><path class="a" d="M41.4,109.5a31.788,31.788,0,0,0,3.361-4.216c.061-.122.122-.183.183-.306a20.054,20.054,0,0,0,.917,2.2q1.375,2.475,2.75,2.933a4.7,4.7,0,0,0,2.75.122c1.161-.306,1.772-.978,1.711-1.955q-.642-8.432.55-13.015a19.673,19.673,0,0,1,4.155-8.188,3.821,3.821,0,0,1,1.405-1.1.527.527,0,0,1,.611.244,2.993,2.993,0,0,1,.244,1.528c-.122,6.11.978,10.754,3.177,13.993,1.772,2.566,3.788,3.911,6.049,3.911a5.349,5.349,0,0,0,1.222-.122c.428-.122.489-.428.244-.794-1.955-2.933-2.75-9.715-1.894-20.47a4.3,4.3,0,0,0-.611-2.994,5.417,5.417,0,0,0-2.75-2.016,6.183,6.183,0,0,0-5.438.733c-2.261,1.283-4.338,3.788-6.11,7.455A23.631,23.631,0,0,0,51.3,96.786c-1.283-11.915-1.222-20.592-.183-25.908a33.078,33.078,0,0,1,1.222-4.766.826.826,0,0,0,0-.917,3.239,3.239,0,0,0-1.344-.733,5.515,5.515,0,0,0-3.422.122,6.615,6.615,0,0,0-2.933,1.65,6.478,6.478,0,0,0-.978,1.894c-1.405,3.361-2.016,9.165-1.589,17.292a110.939,110.939,0,0,0,1.772,15.52c-.306.489-.611.917-.917,1.405-2.383,3.361-5.438,6.844-9.165,8.677a9.266,9.266,0,0,1-3.055.917c-2.627.244-4.7-1.161-6.294-4.216-2.261-4.216-3.055-9.838-2.078-16.8,1.039-7.332,3.849-13.076,8.432-17.17a2.366,2.366,0,0,1,1.589-.733,1.323,1.323,0,0,1,1.405.855,2.781,2.781,0,0,1,.306,1.222,27.66,27.66,0,0,1-.733,3.788,1.849,1.849,0,0,0,0,1.405,1.226,1.226,0,0,0,1.344.672c.428,0,.672-.122.794-.367a29.841,29.841,0,0,0,1.772-5.072,11.875,11.875,0,0,0,.672-3.911,16.365,16.365,0,0,0-.733-1.466,11.455,11.455,0,0,0-1.955-.978c-.306-.367-.55-.733-.855-1.1-2.566-1.894-4.766-2.75-6.538-2.689-4.4.122-8.249,3.116-11.3,8.982a42.148,42.148,0,0,0-4.338,18.881c-.183,7.393,1.1,13.32,3.666,17.781,2.75,4.827,6.538,6.9,11.365,6.477,3.177-.306,6.538-1.772,10.143-4.461,1.344-1.222,2.811-2.261,4.033-3.544" transform="translate(-12.172 -31.711)"/><path class="a" d="M143.116,96.064a18.068,18.068,0,0,0-1.65,6.6,14.476,14.476,0,0,0,1.711,8.493,6.355,6.355,0,0,0,6.721,3.422,15.067,15.067,0,0,0,7.516-2.994,17.758,17.758,0,0,0,4.277-5.01,17.742,17.742,0,0,0,1.405,3.788c1.589,3.177,3.727,4.644,6.477,4.522,3.972-.183,7.088-2.689,9.532-7.7,2.383-4.827,2.811-9.288,1.039-13.32a2.446,2.446,0,0,0-2.322-1.589c-.917,0-1.405.367-1.466,1.039.061.489.183.978.244,1.466.672,4.583.306,8.371-1.039,11.487-1.1,2.627-2.444,3.911-3.972,3.972a2.47,2.47,0,0,1-2.139-1.65,12.508,12.508,0,0,1-1.1-4.827,17.755,17.755,0,0,1,.367-5.255c.917-3.605,2.689-5.866,5.255-6.844a5.65,5.65,0,0,1,1.772-.244c.489,0,.306-.367-.672-1.1a5.168,5.168,0,0,0-3.361-.794c-4.827.122-8.127,2.75-9.654,7.821a16.571,16.571,0,0,0-.733,4.033,10.574,10.574,0,0,1-.855,1.894,19.887,19.887,0,0,1-5.438,6.477,4.351,4.351,0,0,1-2.261.917,2.335,2.335,0,0,1-2.261-1.405c-1.283-2.322-1.589-5.866-.611-10.754.978-5.072,2.689-7.7,4.949-7.882a2.344,2.344,0,0,1,1.283.611,2.567,2.567,0,0,0,1.283.672,1.222,1.222,0,0,0,1.222-.489,2.091,2.091,0,0,0-.367-2.139c-.733-1.1-2.2-1.589-4.338-1.405-4.583.367-8.249,3.116-10.815,8.188" transform="translate(-62.443 -40.888)"/><path class="a" d="M210.16,50.473a7.338,7.338,0,0,1,2.75-2.444,10.761,10.761,0,0,1,2.627-.611,8.625,8.625,0,0,1,3.911.672,3.2,3.2,0,0,0,.183-1.1v-2.2H208.2v-11.3h5.133a3.416,3.416,0,0,0,3.422-3.422v-2.2H208.2V16.621h7.943A3.416,3.416,0,0,0,219.57,13.2V11H201.3V47.356c0,1.894,1.039,3.116,2.689,3.116Z" transform="translate(-85.737 -11)"/><path class="a" d="M218.167,73.1a7.224,7.224,0,0,0-2.2.489c-1.283.55-3.238,2.505-4.338,6.355-4.033,13.382-4.461,23.952-3.361,26.7a13.786,13.786,0,0,0,2.505,3.85c1.283,1.528,2.383,2.261,3.422,2.322a1.438,1.438,0,0,0,.489-.122c0-.061.061-.061.061-.122-.244-.794-.489-1.589-.733-2.322-.55-5.072,1.466-15.52,3.177-21.631,1.833-6.66,3.911-11,5.8-13.137.489-.367.183-.855-.855-1.528a7.228,7.228,0,0,0-3.972-.855" transform="translate(-88.244 -35.15)"/><path class="a" d="M92.3,14.361A3.444,3.444,0,0,0,88.883,11H85.4V46.99a3.416,3.416,0,0,0,3.422,3.422H100a3.416,3.416,0,0,0,3.422-3.422v-2.2H92.3Z" transform="translate(-40.655 -11)"/><path class="a" d="M181.958,11h-3.544c-1.1,0-2.811-.061-4.4,2.933-.367.672-4.827,10.937-6.11,13.932h0v-13.5A3.444,3.444,0,0,0,164.483,11H161V47.112a3.444,3.444,0,0,0,3.422,3.361H167.9V33.547s5.683,13.2,6.11,13.993c1.589,2.933,3.3,2.933,4.4,2.933h3.544L173.4,30.736Z" transform="translate(-70.061 -11)"/><path class="a" d="M137.031,11h-3.483V39.9c0,2.75-1.528,4.949-3.422,4.949s-3.422-2.2-3.422-4.949V14.361A3.444,3.444,0,0,0,123.283,11H119.8V38.924c0,8.066,4.827,11.854,10.265,11.915a10.842,10.842,0,0,0,3.422-.55c3.911-1.344,6.844-5.072,6.844-11.365V13.994a3.231,3.231,0,0,0-3.3-2.994" transform="translate(-54.036 -11)"/><path class="a" d="M256.175,38.191s-1.589-6.6-3.422-7.516c2.566-.733,4.766-2.811,4.766-8.677,0-8-6.171-11-10.021-11h-8.8V47.112a3.444,3.444,0,0,0,3.422,3.361h3.422V33.547c2.811,0,3.3,2.2,3.849,3.972l2.933,9.96c.794,2.383,1.894,2.994,2.933,2.994h4.461Zm-8.249-10.326H245.6V16.621h1.833c2.994,0,4.033,3.483,4.033,5.683,0,2.872-1.1,5.56-3.544,5.56" transform="translate(-100.284 -11)"/></g><path class="a" d="M334.594,96.249A2.479,2.479,0,0,1,333.433,96a5.277,5.277,0,0,1-.978-.611,2.661,2.661,0,0,1-.611-.978,2.48,2.48,0,0,1-.244-1.161h0a2.48,2.48,0,0,1,.244-1.161,3.492,3.492,0,0,1,.672-.978,3.939,3.939,0,0,1,.978-.672,2.648,2.648,0,0,1,1.161-.244,2.479,2.479,0,0,1,1.161.244,5.276,5.276,0,0,1,.978.611,2.661,2.661,0,0,1,.611.978,2.48,2.48,0,0,1,.244,1.161h0a2.48,2.48,0,0,1-.244,1.161,5.275,5.275,0,0,1-.611.978,3.938,3.938,0,0,1-.978.672,4.809,4.809,0,0,1-1.222.244m0-.611a2.533,2.533,0,0,0,.978-.183,3.464,3.464,0,0,0,.794-.489,2.156,2.156,0,0,0,.489-.794,2.452,2.452,0,0,0,.183-.917h0a2.452,2.452,0,0,0-.183-.917,3.465,3.465,0,0,0-.489-.794,1.934,1.934,0,0,0-.733-.489,2.7,2.7,0,0,0-1.955,0,2.325,2.325,0,0,0-.794.55,2.156,2.156,0,0,0-.489.794,2.451,2.451,0,0,0-.183.917h0a2.232,2.232,0,0,0,.183.917,3.464,3.464,0,0,0,.489.794,2.156,2.156,0,0,0,.794.489,3.7,3.7,0,0,0,.917.122m-1.222-4.033h1.344a1.29,1.29,0,0,1,.978.367.835.835,0,0,1,.244.672h0a1.032,1.032,0,0,1-.183.611,1.47,1.47,0,0,1-.489.367l.733,1.1h-.794l-.672-.978h-.55v.978h-.672V91.605Zm1.344,1.528a.517.517,0,0,0,.367-.122.467.467,0,0,0,.122-.306h0a.467.467,0,0,0-.122-.306.883.883,0,0,0-.428-.122h-.672v.855Z" transform="translate(-124.248 -30.806)"/></g></svg>