<svg xmlns="http://www.w3.org/2000/svg" width="310.5" height="132.458" viewBox="0 0 310.5 132.458"><defs><style>.a{fill:#fff;}</style></defs><g transform="translate(-12.172 -11)"><g transform="translate(12.172 11)"><path class="a" d="M108.678,105.02a27.428,27.428,0,0,0,4.243,19.988c3.017,4.62,6.6,6.411,10.654,5.657,6.034-1.131,10.183-5.751,12.822-13.954,2.64-8.014,2.357-14.991-1.226-20.837a3.678,3.678,0,0,0-3.771-1.98c-1.414.189-2.074.849-1.98,1.886.189.754.471,1.509.66,2.169,1.98,6.977,2.169,12.917.754,18.008-1.131,4.243-2.828,6.6-5.186,6.977-1.32.189-2.451-.471-3.488-2.169a23.03,23.03,0,0,1-2.64-7.26,28.353,28.353,0,0,1-.566-8.2c.66-5.751,2.923-9.711,6.506-11.691a8.491,8.491,0,0,1,2.64-.754c.754-.094.377-.66-1.226-1.6-1.226-.754-2.923-.943-5.186-.566C114.335,92.1,110,96.911,108.678,105.02" transform="translate(-17.668 -15.545)"/><path class="a" d="M261.346,109.934a4.763,4.763,0,0,0-.094-3.017,6.519,6.519,0,0,0-2.828-3.488,8.732,8.732,0,0,0-4.243-1.7,3.42,3.42,0,0,0-3.206,1.791q-1.273,1.839-2.546,3.96c-5.846,9.051-9.805,13.577-12.257,13.388a1.9,1.9,0,0,1-1.6-1.414,4.568,4.568,0,0,1-.283-1.7,21.934,21.934,0,0,1,3.866-13.954c3.3-5.091,7.26-7.354,11.88-6.883a5.554,5.554,0,0,1,4.054,2.263,5.654,5.654,0,0,0,2.451,2.263c1.131.377,1.886.471,2.451.094s.566-1.32.094-2.828c-1.131-3.394-5.563-5.563-13.294-6.223a22.1,22.1,0,0,0-6.694.283c-6.788,1.32-11.691,5.94-14.52,13.577-2.64,6.977-2.64,13.294-.566,18.857.283.66.471,1.226.754,1.791,1.037,1.791,2.734,2.734,5.28,2.828,5.657.377,11.22-4.526,17.348-14.425-.754,2.074-.471,4.714.566,8.014,1.7,5.091,4.243,8.3,7.825,9.617,1.98.754,2.829.66,2.546-.377a32.255,32.255,0,0,1-.189-11.785c1.32-4.808,2.357-8.391,3.206-10.937" transform="translate(-24.198 -15.651)"/><path class="a" d="M265.4,88.761a6.029,6.029,0,0,0,4.431,4.526c-.094,0,.849.094,2.734.189-3.017,9.994-4.526,15.934-4.808,17.819a27.371,27.371,0,0,0,.754,13.482,28.11,28.11,0,0,0,1.886,3.866,15.506,15.506,0,0,0,6.694,6.788c.849.377,1.414.377,1.7-.094a8.734,8.734,0,0,0-.471-1.98c-.849-3.3-.094-9.24,2.263-17.631,2.451-8.391,4.714-15.18,6.694-20.365,5.374.283,8.957.566,10.56.754a1.422,1.422,0,0,0,1.32-.849,1.833,1.833,0,0,0,.189-1.7,1.75,1.75,0,0,0-1.6-1.226c-.849-.094-2.074-.283-3.583-.471q-2.4-.283-5.091-.566A69.267,69.267,0,0,1,296.038,78.3c.66-.849.377-1.7-.754-2.546a12.394,12.394,0,0,0-6.977-2.451c-3.488-.283-6.411,1.414-8.863,5.091-1.886,3.583-3.771,7.26-5.468,10.843a47.153,47.153,0,0,1-7.731-1.32c-.754-.377-1.037,0-.849.849" transform="translate(-26.646 -14.56)"/><path class="a" d="M306.149,116.033c5.94.943,11.031-.094,15.368-2.923,4.337-2.923,6.034-6.317,5.091-10.371a8.517,8.517,0,0,0-3.206-4.9,14.011,14.011,0,0,0-5.563-2.357c-9.994-1.509-18.1,1.98-24.136,10.277-5,7.071-6.034,14.142-3.677,21.214,1.791,5.186,5.563,8.108,11.408,8.863a24.722,24.722,0,0,0,13.388-2.169c3.677-2.169,6.317-3.771,7.825-4.9,1.037-.849,1.131-1.791,0-2.828a1.753,1.753,0,0,0-2.64.094c-4.808,3.3-8.863,4.62-12.445,4.148a5.407,5.407,0,0,1-4.714-4.243c-.754-2.546-.471-5.94.754-10.277.849.094,1.7.283,2.546.377m5.28-12.54c3.111-2.451,5.846-3.488,8.108-3.111q1.7.283,1.98,1.414.424,1.414-1.414,3.677a13.586,13.586,0,0,1-3.017,3.111c-3.017,1.509-4.808,2.546-5.374,2.828a12.132,12.132,0,0,1-6.788.566,20.4,20.4,0,0,1,6.506-8.485" transform="translate(-27.988 -15.81)"/><path class="a" d="M57.266,134.066a49.049,49.049,0,0,0,5.186-6.506c.094-.189.189-.283.283-.471a30.944,30.944,0,0,0,1.414,3.394q2.121,3.818,4.243,4.526a7.251,7.251,0,0,0,4.243.189c1.791-.471,2.734-1.509,2.64-3.017q-.99-13.011.849-20.082a30.356,30.356,0,0,1,6.411-12.634,5.9,5.9,0,0,1,2.169-1.7.813.813,0,0,1,.943.377,4.618,4.618,0,0,1,.377,2.357c-.189,9.428,1.509,16.594,4.9,21.591,2.734,3.96,5.846,6.034,9.334,6.034a8.254,8.254,0,0,0,1.886-.189c.66-.189.754-.66.377-1.226-3.017-4.526-4.243-14.991-2.923-31.585a6.64,6.64,0,0,0-.943-4.62A8.358,8.358,0,0,0,94.413,87.4c-2.451-.943-5.28-.66-8.391,1.131-3.488,1.98-6.694,5.846-9.428,11.5a36.463,36.463,0,0,0-4.054,14.425c-1.98-18.385-1.886-31.773-.283-39.976a51.041,51.041,0,0,1,1.886-7.354,1.275,1.275,0,0,0,0-1.414,5,5,0,0,0-2.074-1.131,8.51,8.51,0,0,0-5.28.189,10.207,10.207,0,0,0-4.526,2.546,10,10,0,0,0-1.509,2.923c-2.169,5.186-3.111,14.142-2.451,26.682a171.179,171.179,0,0,0,2.734,23.948c-.471.754-.943,1.414-1.414,2.169-3.677,5.186-8.391,10.56-14.142,13.388a14.3,14.3,0,0,1-4.714,1.414c-4.054.377-7.26-1.791-9.711-6.506-3.488-6.506-4.714-15.18-3.206-25.928,1.6-11.314,5.94-20.177,13.011-26.493a3.651,3.651,0,0,1,2.451-1.131A2.041,2.041,0,0,1,45.48,79.1a4.292,4.292,0,0,1,.471,1.886,42.68,42.68,0,0,1-1.131,5.846,2.852,2.852,0,0,0,0,2.169,1.892,1.892,0,0,0,2.074,1.037c.66,0,1.037-.189,1.226-.566a46.045,46.045,0,0,0,2.734-7.825c.849-3.206,1.226-5.186,1.037-6.034a25.253,25.253,0,0,0-1.131-2.263,17.675,17.675,0,0,0-3.017-1.509c-.471-.566-.849-1.131-1.32-1.7-3.96-2.923-7.354-4.243-10.088-4.148-6.788.189-12.728,4.808-17.442,13.86-4.337,8.391-6.506,18.1-6.694,29.133-.283,11.408,1.7,20.554,5.657,27.436,4.243,7.448,10.088,10.654,17.537,9.994,4.9-.471,10.088-2.734,15.651-6.883,2.074-1.886,4.337-3.488,6.223-5.468" transform="translate(-12.172 -14.044)"/><path class="a" d="M144.041,100.53a27.879,27.879,0,0,0-2.546,10.183,22.337,22.337,0,0,0,2.64,13.105c2.357,4.054,5.846,5.846,10.371,5.28a23.249,23.249,0,0,0,11.6-4.62,27.4,27.4,0,0,0,6.6-7.731,27.379,27.379,0,0,0,2.169,5.846c2.451,4.9,5.751,7.165,9.994,6.977,6.128-.283,10.937-4.148,14.708-11.88,3.677-7.448,4.337-14.331,1.6-20.554a3.775,3.775,0,0,0-3.583-2.451c-1.414,0-2.169.566-2.263,1.6.094.754.283,1.509.377,2.263,1.037,7.071.471,12.917-1.6,17.725-1.7,4.054-3.771,6.034-6.128,6.128-1.32,0-2.451-.849-3.3-2.546a19.3,19.3,0,0,1-1.7-7.448,27.4,27.4,0,0,1,.566-8.108c1.414-5.563,4.148-9.051,8.108-10.56a8.717,8.717,0,0,1,2.734-.377c.754,0,.471-.566-1.037-1.7a7.975,7.975,0,0,0-5.186-1.226c-7.448.189-12.54,4.243-14.9,12.068a25.571,25.571,0,0,0-1.131,6.223,16.314,16.314,0,0,1-1.32,2.923,30.686,30.686,0,0,1-8.391,9.994,6.714,6.714,0,0,1-3.488,1.414,3.6,3.6,0,0,1-3.488-2.169c-1.98-3.583-2.451-9.051-.943-16.594,1.509-7.825,4.148-11.88,7.637-12.162a3.616,3.616,0,0,1,1.98.943,3.962,3.962,0,0,0,1.98,1.037,1.885,1.885,0,0,0,1.886-.754c.471-.849.283-1.98-.566-3.3-1.131-1.7-3.394-2.451-6.694-2.169-7.071.566-12.728,4.808-16.688,12.634" transform="translate(-19.561 -15.393)"/><path class="a" d="M214.971,71.907a11.323,11.323,0,0,1,4.243-3.771,16.6,16.6,0,0,1,4.054-.943A13.308,13.308,0,0,1,229.3,68.23a4.931,4.931,0,0,0,.283-1.7V63.138H211.954V45.7h7.92a5.271,5.271,0,0,0,5.28-5.28V37.022h-13.2V19.674h12.257a5.271,5.271,0,0,0,5.28-5.28V11H201.3V67.1c0,2.923,1.6,4.808,4.148,4.808Z" transform="translate(-22.985 -11)"/><path class="a" d="M223.825,73.1a11.146,11.146,0,0,0-3.394.754c-1.98.849-5,3.866-6.694,9.805-6.223,20.648-6.883,36.959-5.186,41.2a21.272,21.272,0,0,0,3.866,5.94c1.98,2.357,3.677,3.488,5.28,3.583a2.22,2.22,0,0,0,.754-.189c0-.094.094-.094.094-.189-.377-1.226-.754-2.451-1.131-3.583-.849-7.825,2.263-23.948,4.9-33.376,2.828-10.277,6.034-16.971,8.957-20.271.754-.566.283-1.32-1.32-2.357a11.152,11.152,0,0,0-6.128-1.32" transform="translate(-23.353 -14.549)"/><path class="a" d="M96.054,16.186A5.314,5.314,0,0,0,90.774,11H85.4V66.533a5.271,5.271,0,0,0,5.28,5.28h17.254a5.271,5.271,0,0,0,5.28-5.28V63.138H96.054Z" transform="translate(-16.358 -11)"/><path class="a" d="M193.339,11h-5.468c-1.7,0-4.337-.094-6.788,4.526-.566,1.037-7.448,16.877-9.428,21.5h0V16.186A5.314,5.314,0,0,0,166.374,11H161V66.721a5.314,5.314,0,0,0,5.28,5.186h5.374V45.79s8.768,20.365,9.428,21.591c2.451,4.526,5.091,4.526,6.788,4.526h5.468l-13.2-30.453Z" transform="translate(-20.681 -11)"/><path class="a" d="M146.388,11h-5.374V55.6c0,4.243-2.357,7.637-5.28,7.637s-5.28-3.394-5.28-7.637V16.186A5.314,5.314,0,0,0,125.174,11H119.8V54.087c0,12.445,7.448,18.291,15.84,18.385a16.729,16.729,0,0,0,5.28-.849c6.034-2.074,10.56-7.825,10.56-17.537V15.62A4.985,4.985,0,0,0,146.388,11" transform="translate(-18.325 -11)"/><path class="a" d="M265.665,52.956s-2.451-10.183-5.28-11.6c3.96-1.131,7.354-4.337,7.354-13.388C267.739,15.62,258.217,11,252.277,11H238.7V66.721a5.314,5.314,0,0,0,5.28,5.186h5.28V45.79c4.337,0,5.091,3.394,5.94,6.128l4.526,15.368c1.226,3.677,2.923,4.62,4.526,4.62h6.883ZM252.937,37.022h-3.583V19.674h2.829c4.62,0,6.223,5.374,6.223,8.768,0,4.431-1.7,8.58-5.468,8.58" transform="translate(-25.123 -11)"/></g><path class="a" d="M336.22,99.534a3.826,3.826,0,0,1-1.791-.377,8.143,8.143,0,0,1-1.509-.943,4.106,4.106,0,0,1-.943-1.509,3.827,3.827,0,0,1-.377-1.791h0a3.827,3.827,0,0,1,.377-1.791,5.389,5.389,0,0,1,1.037-1.509,6.079,6.079,0,0,1,1.509-1.037,4.086,4.086,0,0,1,1.791-.377,3.826,3.826,0,0,1,1.791.377,8.142,8.142,0,0,1,1.509.943,4.106,4.106,0,0,1,.943,1.509,3.827,3.827,0,0,1,.377,1.791h0a3.827,3.827,0,0,1-.377,1.791,8.143,8.143,0,0,1-.943,1.509,6.078,6.078,0,0,1-1.509,1.037,7.419,7.419,0,0,1-1.886.377m0-.943a3.908,3.908,0,0,0,1.509-.283,5.344,5.344,0,0,0,1.226-.754,3.327,3.327,0,0,0,.754-1.226,3.783,3.783,0,0,0,.283-1.414h0a3.784,3.784,0,0,0-.283-1.414,5.347,5.347,0,0,0-.754-1.226,2.984,2.984,0,0,0-1.131-.754,4.164,4.164,0,0,0-3.017,0,3.588,3.588,0,0,0-1.226.849,3.326,3.326,0,0,0-.754,1.226,3.783,3.783,0,0,0-.283,1.414h0a3.444,3.444,0,0,0,.283,1.414,5.346,5.346,0,0,0,.754,1.226,3.327,3.327,0,0,0,1.226.754,5.707,5.707,0,0,0,1.414.189m-1.886-6.223h2.074a1.991,1.991,0,0,1,1.509.566,1.288,1.288,0,0,1,.377,1.037h0a1.593,1.593,0,0,1-.283.943,2.269,2.269,0,0,1-.754.566l1.131,1.7h-1.226l-1.037-1.509h-.849v1.509H334.24V92.368Zm2.074,2.357a.8.8,0,0,0,.566-.189.72.72,0,0,0,.189-.471h0a.72.72,0,0,0-.189-.471,1.363,1.363,0,0,0-.66-.189h-1.037v1.32Z" transform="translate(-18.262 -4.528)"/></g></svg>